<?xml version="1.0" encoding="utf-8"?>
<!-- Generator: Adobe Illustrator 21.0.0, SVG Export Plug-In . SVG Version: 6.00 Build 0)  -->
<svg version="1.1" id="图层_1" xmlns="http://www.w3.org/2000/svg" xmlns:xlink="http://www.w3.org/1999/xlink" x="0px" y="0px"
	 viewBox="0 0 48 48" style="enable-background:new 0 0 48 48;" xml:space="preserve">
<style type="text/css">
	.st0{fill:#FF7300;}
</style>
<path class="st0" d="M34.5,12h-21c-1.6,0-3,1.4-3,3v12.8c0,1.6,1.4,3,3,3h21c1.6,0,3-1.4,3-3V15C37.5,13.4,36.1,12,34.5,12z
	 M34.5,27.8h-21V15h21V27.8z"/>
<path class="st0" d="M42,1c2.8,0,5,2.2,5,5v36c0,2.8-2.2,5-5,5H6c-2.8,0-5-2.2-5-5V6c0-2.8,2.2-5,5-5H42 M42,0H6C2.7,0,0,2.7,0,6v36
	c0,3.3,2.7,6,6,6h36c3.3,0,6-2.7,6-6V6C48,2.7,45.3,0,42,0L42,0z"/>
<path class="st0" d="M30.3,36H17.7c-0.8,0-1.5-0.7-1.5-1.4c0-0.8,0.7-1.4,1.5-1.4h12.6c0.8,0,1.5,0.7,1.5,1.4S31.1,36,30.3,36z"/>
</svg>
