<?xml version="1.0" encoding="utf-8"?>
<!-- Generator: Adobe Illustrator 21.0.0, SVG Export Plug-In . SVG Version: 6.00 Build 0)  -->
<svg version="1.1" id="图层_1" xmlns="http://www.w3.org/2000/svg" xmlns:xlink="http://www.w3.org/1999/xlink" x="0px" y="0px"
	 viewBox="0 0 48 48" style="enable-background:new 0 0 48 48;" xml:space="preserve">
<style type="text/css">
	.st0{fill:#FF7300;}
</style>
<g>
	<path class="st0" d="M25.6,27.8c-0.2-0.2-0.3-0.4-0.6-0.4h-0.9v2.2H25c0.3,0,0.5-0.1,0.6-0.3c0.1-0.3,0.3-0.5,0.2-0.7
		C25.8,28.2,25.8,27.9,25.6,27.8z"/>
	<path class="st0" d="M31.5,23.9c-0.4-0.5-1.2-0.6-1.6-0.2l-2.2,1.9c-0.3-0.1-0.5-0.1-0.8-0.1h-5.1c-1.9,0-3.4,1.5-3.4,3.4v1.4
		c0,1.9,1.5,3.4,3.4,3.4h5.1c1.9,0,3.4-1.5,3.4-3.4v-1.4c0-0.8-0.3-1.4-0.7-2l1.7-1.5C31.7,25,31.8,24.3,31.5,23.9z M26.6,30
		c-0.4,0.3-0.9,0.5-1.5,0.5h-0.9v2.3h-1.3v-6.4h2.2c0.7,0,1.1,0.3,1.5,0.7c0.4,0.4,0.6,0.9,0.6,1.5C27.1,29.1,27,29.7,26.6,30z"/>
</g>
<path class="st0" d="M42,1c2.8,0,5,2.2,5,5v36c0,2.8-2.2,5-5,5H6c-2.8,0-5-2.2-5-5V6c0-2.8,2.2-5,5-5H42 M42,0H6C2.7,0,0,2.7,0,6v36
	c0,3.3,2.7,6,6,6h36c3.3,0,6-2.7,6-6V6C48,2.7,45.3,0,42,0L42,0z"/>
<path class="st0" d="M39.7,31.3c-0.2,0.2-0.5,0.4-0.8,0.4h-3.1c-0.6,0-1.1-0.5-1.1-1.1s0.5-1.1,1.1-1.1h2c-0.2-2.7-1.2-5.2-2.7-7.2
	l-1.5,1.5c-0.2,0.2-0.5,0.3-0.8,0.3S32.2,24,32,23.8c-0.4-0.4-0.4-1.1,0-1.6l1.6-1.6c-2.2-2.2-5.2-3.6-8.5-3.9V19
	c0,0.6-0.5,1.1-1.1,1.1s-1.1-0.5-1.1-1.1v-2.3c-3.3,0.3-6.3,1.7-8.6,3.9l1.9,1.9c0.4,0.5,0.4,1.1,0,1.6c-0.1,0.2-0.4,0.3-0.8,0.3
	s-0.6-0.1-0.8-0.3l-1.8-1.8c-1.5,2-2.5,4.5-2.7,7.2H12c0.6,0,1.1,0.5,1.1,1.1s-0.5,1.1-1.1,1.1H9.6c-0.2,0-0.3,0-0.4-0.1
	c-0.1,0-0.1,0-0.2,0c-0.6,0-1.1-0.5-1.1-1.1c0-8.9,7.2-16.1,16.1-16.1s16.1,7.2,16.1,16.1C40.1,30.8,40,31.1,39.7,31.3z"/>
</svg>
