<?xml version="1.0" encoding="utf-8"?>
<!-- Generator: Adobe Illustrator 21.0.0, SVG Export Plug-In . SVG Version: 6.00 Build 0)  -->
<svg version="1.1" id="图层_1" xmlns="http://www.w3.org/2000/svg" xmlns:xlink="http://www.w3.org/1999/xlink" x="0px" y="0px"
	 viewBox="0 0 48 48" style="enable-background:new 0 0 48 48;" xml:space="preserve">
<style type="text/css">
	.st0{fill:#FF7300;}
</style>
<g>
	<polygon class="st0" points="15.3,30.3 14.5,33 20.2,33 20.2,30.3 	"/>
	<rect x="21.8" y="30.3" class="st0" width="4.5" height="2.7"/>
	<polygon class="st0" points="31.9,25.9 27.8,25.9 27.8,28.6 32.7,28.6 	"/>
	<polygon class="st0" points="15.4,28.6 20.3,28.6 20.3,25.9 16.2,25.9 	"/>
	<path class="st0" d="M35.3,23.2c-0.1-0.5-0.6-0.8-1.3-0.8H13.4c-0.7,0-1.3,0.3-1.4,0.8L9,35.7c-0.1,0.6,0.6,1.1,1.4,1.1h27.2
		c1,0,1.5-0.5,1.4-1L35.3,23.2z M11.6,34.6l2.4-9.8h19.4l2.9,9.8H11.6z"/>
	<polygon class="st0" points="27.8,30.3 27.8,33 33.5,33 32.7,30.3 	"/>
	<rect x="21.8" y="25.9" class="st0" width="4.5" height="2.7"/>
</g>
<path class="st0" d="M28.8,15.1h-2.4l1.7-1.7L26.7,12L25,13.7v-2.4h-2v2.4L21.3,12l-1.4,1.4l1.7,1.7h-2.4v2h2.4l-1.7,1.7l1.4,1.4
	l1.7-1.7V21h2v-2.4l1.7,1.7l1.4-1.4l-1.7-1.7h2.4V15.1z M24,18.1c-1.1,0-2-0.9-2-2c0-1.1,0.9-2,2-2s2,0.9,2,2
	C26,17.2,25.1,18.1,24,18.1z"/>
<path class="st0" d="M42,1c2.8,0,5,2.2,5,5v36c0,2.8-2.2,5-5,5H6c-2.8,0-5-2.2-5-5V6c0-2.8,2.2-5,5-5H42 M42,0H6C2.7,0,0,2.7,0,6v36
	c0,3.3,2.7,6,6,6h36c3.3,0,6-2.7,6-6V6C48,2.7,45.3,0,42,0L42,0z"/>
</svg>
